<?xml version="1.0" encoding="UTF-8" standalone="no"?>
<!-- Created with Inkscape (http://www.inkscape.org/) -->

<svg
   xmlns:dc="http://purl.org/dc/elements/1.1/"
   xmlns:cc="http://creativecommons.org/ns#"
   xmlns:rdf="http://www.w3.org/1999/02/22-rdf-syntax-ns#"
   xmlns:svg="http://www.w3.org/2000/svg"
   xmlns="http://www.w3.org/2000/svg"
   xmlns:xlink="http://www.w3.org/1999/xlink"
   version="1.1"
   width="1511.9323"
   height="1454.3951"
   id="svg10946">
  <defs
     id="defs10948">
    <mask
       id="mask15257">
      <path
         d="m 8649.9375,-8781.1562 c -6.9446,0.074 -13.9488,0.879 -20.375,1.7187 -20.7047,2.7053 -37.3456,19.6543 -57.6563,24.5 -9.6067,2.292 -20.4122,-1.7482 -29.5624,1.9687 -11.5105,4.6757 -19.8294,14.6079 -28.6876,23.6563 -10.6038,2.185 -19.8854,4.7048 -27.0312,7.0625 -34.5658,11.4047 -81.7104,33.967 -134,54.9688 -6.0305,-39.5023 -22.5198,-80.4998 -33.0625,-81.0313 -17.205,-0.8672 -97.9971,96.1111 -58.6563,206.5937 -4.9623,41.448 -11.5596,85.9584 -20.1874,125.5626 -6.7099,30.7998 -15.2346,58.5701 -22.6563,79.6874 -8.523,-0.7862 -17.3912,-1.4373 -23.125,-1.4687 -18.017,-0.099 -35.1993,0.6861 -50.9375,5.6563 -30.6841,-42.9559 -69.2845,-90.5999 -149.0625,-71.9688 -219.9594,51.3689 -282.0926,408.5376 -291.0625,493.875 l 45.5312,21.6875 c 1.9045,-28.366 2.2346,-39.2532 7.75,-76.7187 0.6512,33.2049 4.1131,47.6967 5.6563,81.5937 46.7665,20.0039 91.4976,33.7062 133.5313,42.1875 -1.0642,5.4187 -2.073,10.8001 -3.0313,16.125 -10.8876,60.4964 165.6163,38.3553 163.125,20.4375 -23.76,-170.8781 45.7493,-220.9458 100.75,-311.3437 9.8417,10.5087 20.4789,20.0063 32.9063,27.0312 -12.0402,40.1482 -12.4321,82.4091 -6.375,121.1875 -14.7826,53.8109 -23.826,111.1776 -32,166.25 -5.8969,39.7293 168.0279,30.787 168.2812,4.0937 0.074,-7.8471 -0.934,-15.3387 -2.4688,-23.3124 38.7322,-0.964 75.514,-7.4469 62.9376,-21.9376 -33.8944,-39.0535 -55.6386,-79.032 -71.7813,-119.2812 3.7019,-33.6231 11.2335,-75.3381 24.6875,-128.0938 8.6922,-2.2032 17.2378,-4.8315 25.4688,-8.1874 3.0691,97.3436 28.5881,191.139 63.125,273.2812 9.3371,22.207 168.6621,45.2279 147.2187,-2.5625 -67.078,-105.9936 -111.3287,-220.5601 -135.5,-367.1875 1.628,-7.5847 2.6609,-15.0706 3.0625,-22.1875 1.6446,-29.146 6.1128,-54.4506 -3.6875,-88.0625 26.5943,4.2899 56.2401,3.2069 87.4063,-7.9062 -0.9393,-0.5403 -2.9126,-1.4307 -5.3438,-2.75 15.2692,-7.3739 27.7754,-15.3016 37.625,-23.6876 0.2449,0.029 0.5075,0.068 0.75,0.094 20.9084,2.2427 41.2899,-15.3902 50.5,-36.8125 6.6195,-15.3972 -9.2263,-24.247 -20.875,-26.7187 0.7312,-2.3414 1.5308,-4.9957 2.3438,-7.8126 0.1371,0.046 0.2689,0.1105 0.4062,0.1563 4.6606,-10.7391 8.3539,-26.7604 11.0625,-42 10.2048,-0.7124 18.2867,-5.9211 25.0937,-11.4063 -7.9905,3.0952 -16.0162,5.6965 -24.125,5.5938 0.2962,-1.8019 0.5766,-3.5671 0.8438,-5.3125 11.1613,-0.6739 19.582,-6.6654 26.5312,-12.875 -8.4025,3.7578 -16.8837,6.9564 -25.625,6.8437 0.2873,-2.0371 0.5072,-3.8737 0.75,-5.75 10.356,-2.1003 14.9903,-5.2415 18.0313,-10.625 -7.778,3.814 -12.5294,4.955 -17.375,5.4688 0.3634,-3.0539 0.6896,-5.8135 0.9063,-8.0312 l -3.0938,0.4062 c 1.0713,-24.2002 -1.2185,-49.5983 -10.2812,-72.0938 51.3758,-3.1156 101.564,-0.8081 146.1874,3.4688 -8.3535,-38.6815 -27.2672,-80.9001 -48.6874,-113.3438 5.8762,-11.7635 9.6153,-24.7305 10.4374,-37.5937 1.4015,-21.9304 0.6229,-49.2701 -15.6562,-64.0313 -8.0016,-7.2554 -19.3631,-9.1859 -30.9375,-9.0624 z m -567.4063,508.125 c -7.8203,13.7779 -14.3644,28.2423 -18.4687,40.9062 -18.3071,48.5278 -13.739,88.0556 -18.7187,134.125 -6.3556,-1.1034 -15.3551,-1.4 -19.9063,3.3125 -38.2269,39.5824 -64.8886,78.551 -84.0937,116.375 -9.6443,-137.4874 36.9003,-292.5096 141.1874,-294.7187 z"
         id="path15259"
         style="fill:#ffffff;fill-opacity:1;fill-rule:nonzero;stroke:none" />
    </mask>
    <filter
       x="-0.23330253"
       y="-0.24709336"
       width="1.4666051"
       height="1.4941868"
       color-interpolation-filters="sRGB"
       id="filter15253">
      <feGaussianBlur
         id="feGaussianBlur15255"
         stdDeviation="100.21376" />
    </filter>
    <filter
       x="-0.22674318"
       y="-0.16648933"
       width="1.4534863"
       height="1.3329787"
       color-interpolation-filters="sRGB"
       id="filter8435-0-8-3-5-0-8-8">
      <feGaussianBlur
         id="feGaussianBlur8437-9-1-8-5-5-9-7"
         stdDeviation="4.3767572" />
    </filter>
    <radialGradient
       cx="2779.8374"
       cy="3904.6987"
       r="33.836601"
       fx="2779.8374"
       fy="3904.6987"
       id="radialGradient10962-4-1-2-3"
       xlink:href="#linearGradient9584-5-5-0-1-8-3"
       gradientUnits="userSpaceOnUse"
       gradientTransform="matrix(1.4730626,1.0859962,-3.319856,3.5969046,-64.817288,-13951.608)" />
    <linearGradient
       id="linearGradient9584-5-5-0-1-8-3">
      <stop
         id="stop9586-7-2-2-5-2-1"
         style="stop-color:#c8c7ee;stop-opacity:0.31914893"
         offset="0" />
      <stop
         id="stop9588-4-0-6-9-0-0"
         style="stop-color:#493cd9;stop-opacity:0.27127659"
         offset="1" />
    </linearGradient>
    <radialGradient
       cx="2779.8374"
       cy="3904.6987"
       r="33.836601"
       fx="2779.8374"
       fy="3904.6987"
       id="radialGradient10964-0-0-5-8"
       xlink:href="#linearGradient9624-4-7-6-8-5-1"
       gradientUnits="userSpaceOnUse"
       gradientTransform="matrix(1.8529939,1.3660955,-4.1761109,4.5246156,2220.6568,-18357.299)" />
    <linearGradient
       id="linearGradient9624-4-7-6-8-5-1">
      <stop
         id="stop9626-4-2-1-3-2-0"
         style="stop-color:#c8c7ee;stop-opacity:0.2393617"
         offset="0" />
      <stop
         id="stop9628-4-9-1-8-7-9"
         style="stop-color:#493cd9;stop-opacity:0.31382978"
         offset="1" />
    </linearGradient>
    <filter
       x="-0.17475614"
       y="-0.21301945"
       width="1.3495123"
       height="1.4260389"
       color-interpolation-filters="sRGB"
       id="filter8431-2-2-7-1-7-6-2">
      <feGaussianBlur
         id="feGaussianBlur8433-5-9-5-7-2-7-4"
         stdDeviation="11.903495" />
    </filter>
    <radialGradient
       cx="2779.8374"
       cy="3904.6987"
       r="33.836601"
       fx="2779.8374"
       fy="3904.6987"
       id="radialGradient10966-3-6-8-9"
       xlink:href="#linearGradient9624-8-0-4-0-9-7-1"
       gradientUnits="userSpaceOnUse"
       gradientTransform="matrix(1.919883,1.322672,-4.3268596,4.3807934,4077.6202,-23082.136)" />
    <linearGradient
       id="linearGradient9624-8-0-4-0-9-7-1">
      <stop
         id="stop9626-6-7-3-0-3-8-5"
         style="stop-color:#c8c7ee;stop-opacity:0.2393617"
         offset="0" />
      <stop
         id="stop9628-2-7-2-4-8-1-7"
         style="stop-color:#493cd9;stop-opacity:0.31382978"
         offset="1" />
    </linearGradient>
    <filter
       color-interpolation-filters="sRGB"
       id="filter9714-8-1-8-1-6-3">
      <feGaussianBlur
         id="feGaussianBlur9716-7-1-3-0-0-3"
         stdDeviation="5.7638537" />
    </filter>
    <filter
       color-interpolation-filters="sRGB"
       id="filter9979-3-3-0-3-9-4">
      <feGaussianBlur
         id="feGaussianBlur9981-0-2-1-3-5-2"
         stdDeviation="1.4306662" />
    </filter>
  </defs>
  <metadata
     id="metadata10951">
    <rdf:RDF>
      <cc:Work
         rdf:about="">
        <dc:format>image/svg+xml</dc:format>
        <dc:type
           rdf:resource="http://purl.org/dc/dcmitype/StillImage" />
        <dc:title></dc:title>
      </cc:Work>
    </rdf:RDF>
  </metadata>
  <g
     transform="translate(513.10902,360.5497)"
     id="layer1">
    <g
       transform="translate(9515.729,-3139.6505)"
       id="g10886-8-2"
       style="display:inline">
      <path
         d="m -9131.5799,3599.3618 c -10.3712,122.0058 18.5991,241.5325 61.3467,343.2032 9.3371,22.207 168.667,45.2169 147.2236,-2.5735 -71.4941,-112.9718 -117.0409,-235.6722 -140.0003,-396.5622 z"
         id="path3846-1-3-4-4"
         style="fill:#a37ab4;fill-opacity:1;fill-rule:nonzero;stroke:none" />
      <path
         d="m -9127.808,3590.0249 c -2.6791,193.8805 35.097,272.5733 62.2886,345.2091 10.1185,27.0287 148.4115,28.7987 135.0734,9.9356 -48.5308,-68.6345 -109.7039,-196.0182 -141.7906,-411.5944 z"
         id="path3858-58-5-8-1"
         style="fill:#b28ec4;fill-opacity:1;fill-rule:nonzero;stroke:none" />
      <path
         d="m -9292.5083,3652.6007 c -50.276,112.6449 6.567,253.3163 43.9428,286.1388 14.1934,12.3767 160.1227,12.9381 136.838,-13.8908 -83.4323,-96.1318 -93.323,-197.8886 -126.9594,-295.4116 z"
         id="path3848-5-1-0-0"
         style="fill:#a37ab4;fill-opacity:1;fill-rule:nonzero;stroke:none" />
      <path
         d="m -9281.9167,3656.4586 c -51.6015,87.9475 -7.9393,223.2937 39.8234,274.4462 12.3379,14.8761 137.7652,11.3871 119.9058,-7.1536 -73.4848,-76.2874 -86.2426,-190.2004 -129.4438,-294.9954 z"
         id="path3856-4-2-1-3"
         style="fill:#b28ec4;fill-opacity:1;fill-rule:nonzero;stroke:none" />
      <g
         transform="matrix(0.95323293,-0.25556199,0,0.96876812,1507.7596,-264.06655)"
         id="g14444-4-2-5-7">
        <path
           d="m -11371.98,841.84135 c -35.713,-56.88512 -74.413,-139.34517 -172.975,-142.69711 -230.751,-7.84743 -295.915,343.64406 -305.325,429.25026 l 47.756,34.9862 c 1.998,-28.7534 2.34,-39.9145 8.126,-77.0615 0.683,34.4556 4.321,50.363 5.94,85.7799 83.489,57.1634 160.764,93.9528 228.506,114.6408 -89.732,-176.8369 -38.108,-533.35311 161.132,-403.06485 z"
           id="path4157-9-1-0-4-2-4-3"
           style="fill:#222350;fill-opacity:1;fill-rule:nonzero;stroke:none" />
        <path
           d="m -11378.713,842.11832 c -37.038,-71.93798 -87.456,-135.26656 -161.956,-137.30015 -188.301,-5.13989 -281.479,246.05068 -302.96,417.40313 l 34.767,26.6904 c 1.405,-27.8647 7.974,-53.6036 14.543,-93.7232 6.323,38.8549 7.588,66.8853 13.409,113.3054 80.631,47.6063 143.742,87.495 205.978,101.6324 -79.3,-200.6391 -19.333,-509.17837 173.357,-393.94605 z"
           id="path4157-8-8-6-9-1-6-1-9"
           style="fill:#273b75;fill-opacity:1;fill-rule:nonzero;stroke:none" />
        <path
           d="m -11387.043,853.86215 -4.295,9.0874 c -32.34,-15.8817 -107.15,-65.576 -162.256,-38.50511 -117.259,57.60437 -79.185,196.03436 -63.401,432.26836 -18.493,-7.3814 -43.646,-19.4443 -60.744,-28.211 -8.803,-120.658 -46.462,-413.52506 108.841,-446.88667 80.83,-17.36374 155.254,37.73352 181.855,72.24702 z"
           id="path4443-1-4-7-6-4-3-5"
           style="fill:#683a8b;fill-opacity:1;fill-rule:nonzero;stroke:none" />
        <path
           d="m -11381.391,843.05614 -3.219,2.4063 c -82.294,-120.19781 -230.178,-156.50872 -315.231,-44.98561 -77.667,101.83864 -108.792,230.87957 -126.845,340.32887 l -5.267,-4.1006 c 12.502,-89.1188 47.228,-234.72918 128.987,-340.99657 95.182,-123.71378 261.586,-54.91983 321.575,47.34761 z"
           id="path4449-6-0-9-1-0-7-9"
           style="font-size:medium;font-style:normal;font-variant:normal;font-weight:normal;font-stretch:normal;text-indent:0;text-align:start;text-decoration:none;line-height:normal;letter-spacing:normal;word-spacing:normal;text-transform:none;direction:ltr;block-progression:tb;writing-mode:lr-tb;text-anchor:start;baseline-shift:baseline;color:#000000;fill:#222350;fill-opacity:1;stroke:none;stroke-width:4;marker:none;visibility:visible;display:inline;overflow:visible;enable-background:accumulate;font-family:Sans;-inkscape-font-specification:Sans" />
        <path
           d="m -11385.573,858.40585 c -21.634,-25.3059 -114.108,-95.61515 -190.011,-69.98149 -115.77,39.09739 -105.742,227.31684 -96.07,443.17674 -16.536,-7.5607 -44.864,-25.7826 -60.942,-34.7217 6.908,-156.214 -27.042,-399.1748 150.249,-446.04496 73.129,-19.33283 174.9,65.26241 200.378,101.16841 z"
           id="path4445-2-6-9-6-7-3-7"
           style="fill:#f45c8f;fill-opacity:1;fill-rule:nonzero;stroke:none" />
        <path
           d="m -11485.981,851.59951 -3.29,2.87026 c -126.819,-14.38704 -135.9,109.31656 -115.149,232.67483 l -3.875,-0.3366 c -21.74,-121.7413 -13.209,-252.43551 122.314,-235.20849 z"
           id="path4447-2-1-3-3-0-5-2"
           style="font-size:medium;font-style:normal;font-variant:normal;font-weight:normal;font-stretch:normal;text-indent:0;text-align:start;text-decoration:none;line-height:normal;letter-spacing:normal;word-spacing:normal;text-transform:none;direction:ltr;block-progression:tb;writing-mode:lr-tb;text-anchor:start;baseline-shift:baseline;color:#000000;fill:#222350;fill-opacity:1;stroke:none;stroke-width:4;marker:none;visibility:visible;display:inline;overflow:visible;enable-background:accumulate;font-family:Sans;-inkscape-font-specification:Sans" />
      </g>
      <path
         d="m -9413.6162,3504.4817 c -35.1449,63.8148 -27.243,109.8847 -33.2503,165.4605 -6.3556,-1.1034 -15.3304,-1.4115 -19.8816,3.301 -92.5539,95.8357 -117.5506,188.0726 -132.1476,269.1806 -10.8876,60.4964 165.6301,38.3738 163.1388,20.456 -26.0581,-187.4059 60.0737,-229.5068 116.2093,-338.8568 z"
         id="path3799-2-3-8-0"
         style="fill:#a37ab4;fill-opacity:1;fill-rule:nonzero;stroke:none" />
      <path
         d="m -9424.9193,3546.693 c -13.8547,42.7731 -13.3251,90.862 -16.6738,134.5661 -0.4189,5.4674 -2.7956,20.2711 -6.2868,20.0026 -6.1967,-0.4765 2.3057,-35.1652 -17.6557,-16.7272 -68.2864,63.0744 -114.0192,173.3841 -123.3237,266.5507 -7.3994,28.0649 144.1544,25.1594 142.8285,7.7525 -28.2046,-172.415 71.2136,-242.8029 127.6713,-350.7512 z"
         id="path3852-6-4-5-2"
         style="fill:#d9adeb;fill-opacity:1;fill-rule:nonzero;stroke:none" />
      <path
         d="m -9428.1419,3570.8434 c -18.2985,-11.1314 21.7677,-97.0483 55.1363,-122.4708 21.7038,-16.5354 47.708,-18.5424 75.74,-18.3887 14.0622,0.077 47.1279,4.0133 47.1279,4.0133 1.1145,-36.2673 2.9541,-85.2275 14.2505,-111.6834 l 180.557,55.4107 c 3.5159,-1.1721 -11.8703,58.936 -4.7292,81.7512 11.0059,35.1627 6.3133,61.1123 4.6188,91.1426 -1.909,33.8304 -18.1759,75.8736 -44.0321,98.3037 -26.3002,22.8152 -60.1393,29.7163 -93.3623,35.5031 -31.1654,5.4283 -64.6044,11.5334 -94.4211,0.9634 -60.6568,-21.5028 -80.2157,-101.0818 -140.8858,-114.5451 z"
         id="path3850-5-0-6-8"
         style="fill:#a37ab4;fill-opacity:1;fill-rule:nonzero;stroke:none" />
      <path
         d="m -9434.522,3591.0223 c 5.0702,-51.6404 31.3258,-117.0943 71.5953,-140.7454 40.3144,-23.6776 76.3246,-14.4477 109.8201,-9.8457 4.8904,1.2892 3.2879,25.0433 3.454,35.8538 0.065,4.2356 -4.996,8.1013 -7.8752,12.152 -3.811,5.3616 -9.3647,12.4379 -1.0196,7.4263 4.0887,-2.4553 6.6148,-4.5811 10.4796,-7.4813 3.2973,24.8179 8.9162,24.2189 7.6303,0.2244 -5.4281,-53.5496 -0.9328,-111.3043 4.3255,-157.491 l 152.0618,50.3347 c -3.5109,15.4662 7.0024,19.7271 8.4052,46.1003 1.0621,19.9696 9.049,35.7855 11.7279,49.1749 9.2927,46.4455 1.647,95.52 -13.6939,124.2474 -36.1319,67.6611 -68.7044,64.7772 -108.1815,74.0664 -43.1572,10.155 -75.7537,13.1445 -108.1948,-0.2287 -21.002,-8.6578 -38.2569,-28.7095 -49.3806,-48.2287 -12.9812,-22.7787 -14.9519,-42.3681 -15.2248,-59.8227 -2.9449,20.3026 -4.8071,51.4715 18.1532,78.9534 z"
         id="path3860-1-0-9-6"
         style="fill:#d9adeb;fill-opacity:1;fill-rule:nonzero;stroke:none" />
      <path
         d="m -9208.9844,3619.2323 c -89.0288,79.1766 -112.5509,219.1881 -131.4876,346.773 -5.8968,39.7293 168.0236,30.7811 168.2769,4.0878 0.4654,-49.059 -42.1253,-84.4518 17.3689,-307.9976 2.7768,-10.4337 -2.3449,-35.6345 1.0596,-47.2223 z"
         id="path3844-9-5-0-7"
         style="fill:#a37ab4;fill-opacity:1;fill-rule:nonzero;stroke:none" />
      <path
         d="m -9208.1739,3616.5084 c -67.4394,75.3283 -114.608,219.7442 -123.0774,350.1007 -0.3549,25.6956 155.1996,14.0685 150.7844,-2.4086 -35.8243,-133.6981 4.1096,-244.2227 30.8474,-353.2428 z"
         id="path3854-0-3-8-0"
         style="fill:#d9adeb;fill-opacity:1;fill-rule:nonzero;stroke:none" />
      <path
         d="m -9370.7911,3518.2914 -5.3138,12.2408 5.0913,-2.1786 -6.2322,6.3909 -1.5483,7.8183 -1.2143,-3.7598 -6.3604,12.5983 4.948,-13.5764 -3.9425,1.6148 4.6321,-5.1034 1.1628,-7.3278 1.7967,2.5701 z"
         id="path4485-0-2-6-1-9-8"
         style="fill:#ffffff;fill-opacity:1;fill-rule:nonzero;stroke:none" />
      <path
         d="m -9372.9668,3501.7925 -16.0068,16.6689 7.8069,6.3762 -10.1811,-0.3699 -6.1648,22.9475 3.5981,-23.1028 -14.1947,21.5807 11.448,-22.2164 -3.873,-5.9809 7.8353,-3.1153 9.7458,-19.473 -5.635,17.9394 z"
         id="path4481-8-9-9-4-0-3-1"
         style="fill:#ffffff;fill-opacity:1;fill-rule:nonzero;stroke:none" />
      <path
         d="m -9366.603,3508.237 -16.3685,0.355 17.0747,-32.2527 -21.8907,29.1345 -6.5436,-3.9379 -1.1047,15.9795 -12.1003,15.5238 7.902,-2.2875 -11.2811,40.0332 16.1689,-38.9125 5.0688,14.1098 0.9882,-25.8444 z"
         id="path4483-7-2-4-0-6-6-8"
         style="fill:#ec448c;fill-opacity:1;fill-rule:nonzero;stroke:none" />
      <path
         d="m -9358.5472,3475.9546 3.5304,-1.5892 -4.8732,5.1077 -1.3543,6.0618 -0.7772,-2.8713 -4.8676,9.5366 3.8673,-10.2076 -2.8253,1.1182 3.5418,-4.1327 1.2506,-5.8502 1.0881,2.2363 5.324,-8.7425 z"
         id="path4520-8-4-4-7-7-0-3"
         style="fill:#ffffff;fill-opacity:1;fill-rule:nonzero;stroke:none" />
      <path
         d="m -9382.42,3478.196 4.6421,-4.2956 -3.4277,1.4996 4.7731,-9.6795 -5.7242,8.4888 -1.2924,-1.9524 -1.3418,5.0532 -3.7128,4.1674 2.6689,-0.9905 -4.9352,9.8263 5.7199,-8.7526 0.5423,2.9891 z"
         id="path4522-9-9-8-2-5-6-0"
         style="fill:#ffffff;fill-opacity:1;fill-rule:nonzero;stroke:none" />
      <path
         d="m -9415.1794,3539.1735 -4.5119,10.3026 -1.4023,-1.3735 -0.5198,5.1393 -3.1254,5.3927 2.289,-1.6934 -3.3209,10.716 4.6776,-10.7599 0.8504,2.8979 0.7975,-6.2153 4.2712,-6.3965 -3.3815,2.8587 z"
         id="path4524-7-1-2-6-0-9-3"
         style="fill:#ffffff;fill-opacity:1;fill-rule:nonzero;stroke:none" />
      <path
         d="m -9393.5697,3551.1522 -6.251,9.0288 -1.6267,-1.5804 -1.3358,5.9974 -3.4236,4.4509 2.7278,-1.5769 -3.9525,10.5098 5.1163,-9.7997 0.5041,3.1471 1.5753,-6.1235 5.1373,-5.772 -3.5765,1.6759 z"
         id="path4526-9-5-7-6-0-7-6"
         style="fill:#ffffff;fill-opacity:1;fill-rule:nonzero;stroke:none" />
      <path
         d="m -8935.7307,3421.6483 -58.257,-41.1599 -36.3105,42.4363 47.8251,28.894 c 19.6698,-9.1369 35.7965,-19.5959 46.7424,-30.1704 z"
         id="path7292-4-4-8-2"
         style="fill:#ffffff;fill-opacity:1;fill-rule:nonzero;stroke:#98b1c8;stroke-width:4.68163157;stroke-miterlimit:4;stroke-opacity:1;stroke-dasharray:none" />
      <path
         d="m -8994.375,3377.3438 -1.4062,1.625 -36.2813,42.4374 -1.8437,2.125 2.4374,1.4063 48.75,28.5313 1.0626,0.625 1.125,-0.5313 c 19.849,-9.2202 35.2483,-19.4093 46.4374,-30.2187 l 2.0313,-1.9688 -2.3125,-1.625 -58.25,-41.1875 z m 0.75,6.2812 54.0938,38.2188 c -10.3206,9.4586 -25.0972,18.962 -42.8514,27.3155 l -44.3362,-26.8468 z"
         id="path14622"
         style="font-size:medium;font-style:normal;font-variant:normal;font-weight:normal;font-stretch:normal;text-indent:0;text-align:start;text-decoration:none;line-height:normal;letter-spacing:normal;word-spacing:normal;text-transform:none;direction:ltr;block-progression:tb;writing-mode:lr-tb;text-anchor:start;baseline-shift:baseline;color:#000000;fill:#98b1c8;fill-opacity:1;fill-rule:nonzero;stroke:none;stroke-width:4.68163157;marker:none;visibility:visible;display:inline;overflow:visible;enable-background:accumulate;font-family:Sans;-inkscape-font-specification:Sans" />
      <path
         d="m -8999.6266,3402.304 c 2.6012,12.9776 12.2072,21.018 22.6499,28.4179 -11.568,-3.6772 -24.0792,-9.6859 -29.2813,-26.1882 z"
         id="path7198-0-7-5-9-0"
         style="fill:#98b1c8;fill-opacity:1;fill-rule:nonzero;stroke:none" />
      <path
         d="m -9217.1013,3181.9474 c 44.3779,-17.7669 47.9051,-41.7521 86.6903,-62.9918 5.9105,-3.2367 12.1004,-6.838 18.6754,-10.9026 110.3417,-18.7486 182.6784,47.1773 204.473,91.1867 27.6267,55.7876 8.1047,133.7864 -1.811,165.5378 11.6487,2.4718 27.506,11.3066 20.8865,26.7038 -9.2101,21.4223 -29.6161,39.0739 -50.5245,36.8312 -18.7617,-2.0122 -45.005,-12.3542 -53.3977,-31.5051 -20.665,41.6317 15.1865,54.8651 20.3758,57.85 -91.0906,32.481 -169.2746,-20.7284 -195.8508,-43.2989 -11.5207,-9.7842 -43.9699,-37.3171 -51.0219,-47.5261 -20.437,-29.5853 -3.9663,-6.8628 -28.0517,-4.3236 26.9189,-34.7192 31.9745,-132.5963 29.5566,-177.5614 z"
         id="path3807-1-9-0-9-8-4-4-2"
         style="fill:#a37ab4;fill-opacity:1;fill-rule:nonzero;stroke:none" />
      <path
         d="m -9214.4707,3189.7358 c 39.2572,-11.7516 38.5365,-37.9924 83.4333,-59.5919 8.1397,-3.9158 17.016,-8.2855 26.8618,-13.2148 136.4524,-10.8245 175.8691,50.5873 196.5866,106.1717 13.9278,37.368 6.7529,102.3166 -8.5271,139.2623 -4.2536,-0.8031 -16.9326,-6.4755 -22.4424,-16.595 13.7126,39.0073 43.4954,24.5238 40.4179,39.6579 -1.7719,8.7126 -13.3347,31.2127 -34.2674,34.1813 -15.2532,2.1634 -56.2708,-11.7864 -56.1037,-37.7772 -29.5274,33.9351 -18.0103,61.2975 0.3517,70.8824 -51.9971,9.4522 -94.1438,5.3915 -153.9141,-29.4128 -52.0824,-30.3276 -66.6454,-53.0023 -108.4001,-39.5645 5.4049,-74.5083 35.2421,-162.0716 36.0035,-193.9994 z"
         id="path3830-7-0-5-2-3-9-1-8"
         style="fill:#d9adeb;fill-opacity:1;fill-rule:nonzero;stroke:none" />
      <path
         d="m -8906.3774,3306.9039 c 12.2574,4.9946 24.2642,1.423 36.199,-3.1999 -9.4516,7.6162 -21.3681,14.7317 -38,9.9603 z"
         id="path7198-1-5-5-5-4"
         style="fill:#000000;fill-opacity:1;fill-rule:nonzero;stroke:none" />
      <path
         d="m -8902.9147,3296.1606 c 12.496,4.3632 24.3052,0.1842 35.9888,-5.0409 -9.0512,8.0879 -20.5895,15.8016 -37.4429,11.8842 z"
         id="path7198-12-6-6-1"
         style="fill:#000000;fill-opacity:1;fill-rule:nonzero;stroke:none" />
      <path
         d="m -8936.6523,3349.7374 c -5.5714,-10.9911 -4.9897,-21.8562 -7.6096,-32.7603 -0.2297,-7.2367 -0.2549,-13.9497 -0.1007,-20.162 l 44.2983,-5.6364 c -1.2567,13.0633 -5.5159,44.7133 -12.7612,61.7611 -7.7998,-2.6536 -15.5046,-4.2502 -23.8269,-3.2024 z"
         id="path4331-3-7-0-4-6-8"
         style="fill:#ffffff;fill-opacity:1;fill-rule:nonzero;stroke:none" />
      <path
         d="m -9131.4063,3336.9477 c -13.7496,4.0347 -17.4809,13.9215 -14.117,24.9252 2.2589,-11.1911 8.9317,-18.2671 16.6804,-20.6852 z"
         id="path4302-9-9-1-8-6-3"
         style="fill:#000000;fill-opacity:1;fill-rule:nonzero;stroke:none" />
      <path
         d="m -8922.6495,3394.3402 c -10.7116,1.8 -15.6909,-0.3267 -18.5021,-10.6736 -0.8626,20.0218 2.5888,20.2439 18.5021,10.6736 z"
         id="path4181-1-5-6-2-6-7"
         style="fill:#a37ab4;fill-opacity:1;fill-rule:nonzero;stroke:none" />
      <path
         d="m -9002.1351,3379.4962 c 11.4204,-61.3451 1.6698,-106.3259 -34.1066,-143.8017 l -29.4015,89.7038 z"
         id="path4324-2-43-4-1-6-5"
         style="fill:#000000;fill-opacity:1;fill-rule:nonzero;stroke:none" />
      <path
         d="m -9135.6885,3242.1441 c -13.4093,-1.6392 -26.8427,-9.088 -36.6907,-17.2529 0.8782,12.0744 20.5241,22.6342 31.4305,23.9657 z"
         id="path4278-8-1-0-6-7-8"
         style="fill:#000000;fill-opacity:1;fill-rule:nonzero;stroke:none" />
      <path
         d="m -9138.9836,3252.4508 c -13.461,1.1407 -28.1346,-3.4004 -39.4457,-9.3764 3.3314,11.6388 24.723,17.9531 35.671,17.0237 z"
         id="path4278-5-8-2-6-8-1-1"
         style="fill:#000000;fill-opacity:1;fill-rule:nonzero;stroke:none" />
      <path
         d="m -9138.9174,3323.9489 c -16.4188,-0.4393 -25.172,5.978 -26.3116,18.0288 6.7278,-8.2929 15.1333,-15.5422 30.4791,-11.5957 z"
         id="path4300-1-3-1-3-4-7"
         style="fill:#000000;fill-opacity:1;fill-rule:nonzero;stroke:none" />
      <path
         d="m -9140.9161,3314.7531 c -11.6326,-5.5869 -20.4368,0.7515 -25.9566,10.1807 10.2269,-7.3393 18.499,-8.4818 26.8684,-5.2304 z"
         id="path4298-8-3-8-1-0-0"
         style="fill:#000000;fill-opacity:1;fill-rule:nonzero;stroke:none" />
      <path
         d="m -9125.6706,3350.8064 c -24.712,-24.5675 -26.6496,-65.0167 -15.0134,-122.554 l 130.9548,54.9794 c 7.0224,18.016 9.2638,36.22 9.4463,53.5649 -43.4443,-10.5977 -84.5213,0.7306 -125.3877,14.0097 z"
         id="path4193-6-4-9-4-6-4"
         style="fill:#ffffff;fill-opacity:1;fill-rule:nonzero;stroke:none" />
      <path
         d="m -8944.2693,3296.1871 c 0.1018,17.5265 2.7962,35.0986 7.3083,53.1997 l -0.1407,0.08 c -7.2344,-17.6658 -10.9842,-35.8076 -11.6016,-53.4197 z"
         id="path4421-9-8-8-8-1-8"
         style="fill:#000000;fill-opacity:1;fill-rule:nonzero;stroke:none" />
      <path
         d="m -9004.8276,3282.5953 -132.522,-54.3777 17.4354,-35.7836 80.482,2.8195 z"
         id="path7249-4-4-2-8"
         style="fill:#d9adeb;fill-opacity:1;fill-rule:nonzero;stroke:none" />
      <path
         d="m -8989.1305,3269.9954 c 0.891,2.4062 12.3971,33.2248 8.148,30.8876 -1.8345,-1.0095 -112.7786,-48.3557 -164.5266,-71.1667 -9.3131,-4.1052 -28.1846,-13.5457 -26.5834,-33.1884 11.6,17.6912 20.3422,21.1255 30.8547,25.6505 47.4395,20.42 148.1133,63.2225 149.2669,61.9839 2.5058,-2.6888 -1.7947,-11.7062 -5.3316,-20.1363 -0.7825,-1.8653 6.6722,1.9183 8.172,5.9694 z"
         id="path6071-1-7-6-06-1-9-1-1"
         style="fill:#000000;fill-opacity:1;fill-rule:nonzero;stroke:none" />
      <path
         d="m -8757.4187,3210.8039 c -14.2393,-65.936 -59.1469,-142.1455 -94.8874,-162.709 -46.3882,-26.6898 -121.1981,-13.0031 -153.2631,-2.4236 -44.2389,14.5963 -109.0699,47.4925 -178.9396,71.9656 l 7.3487,8.8178 c 95.7859,24.2762 48.269,115.6332 42.4954,140.8185 21.0494,-10.0405 79.7004,-31.0099 79.7004,-31.0099 -1.7598,-19.1964 0.012,-38.3929 -6.2187,-57.5894 12.5179,12.3903 22.2958,29.1645 29.7739,49.6185 92.0282,-26.5926 192.3438,-25.3139 273.9904,-17.4885 z"
         id="path4189-1-0-4-2-4-3"
         style="fill:#222350;fill-opacity:1;fill-rule:nonzero;stroke:none" />
      <path
         d="m -9024.6699,3216.3117 c -4.3014,-15.8316 -34.0252,-46.6414 -45.7046,-51.9691 3.9495,10.2584 8.5781,40.6687 3.6728,65.5297 -13.7178,4.947 -39.2043,13.544 -53.8444,19.8111 32.9158,-120.5137 -21.1426,-104.8323 -59.6453,-122.6483 72.1693,-26.5343 144.2694,-66.9776 231.6424,-84.2244 36.1312,-7.132 70.9794,-5.1344 94.6797,14.1968 52.5213,42.8395 69.6906,100.0073 80.6619,142.0192 l -56.0281,-2.1734 c -56.3987,-2.1878 -102.5583,0.077 -149.2468,8.7079 -20.1743,3.7296 -24.9472,4.4892 -46.1876,10.7505 z"
         id="path4451-7-2-3-0-9-6"
         style="fill:#273b75;fill-opacity:1;stroke:none" />
      <path
         d="m -8827.0561,3196.8914 c -26.1875,-119.5329 -107.5579,-147.258 -136.0499,-150.9671 -8.3381,1.9103 -36.5112,8.7006 -43.6338,11.9716 31.2373,36.2092 108.625,84.675 112.0969,138.7334 16.8219,-1.0509 56.6411,0.2995 67.5868,0.2621 z"
         id="path4475-0-8-3-0-7-5-7"
         style="fill:#f45c8f;fill-opacity:1;stroke:none" />
      <path
         d="m -9006.4886,3057.8189 c -10.9833,3.3633 -21.6121,7.223 -32.1538,11.2047 21.7479,19.0826 76.0529,44.5643 92.4694,131.5617 23.0436,-3.3652 38.0256,-2.8983 58.0066,-4.2887 -11.863,-81.2821 -72.4099,-121.656 -118.3222,-138.4777 z"
         id="path4477-3-6-8-5-1-2-8"
         style="fill:#683a8b;fill-opacity:1;fill-rule:nonzero;stroke:none" />
      <path
         d="m -8958.4111,3197.775 c 50.036,-60.5445 99.8148,-136.1181 84.9214,-150.3961 -14.8933,-14.278 -73.8068,29.7745 -132.0323,86.9745 z"
         id="path4479-0-9-6-8-0-3-9"
         style="fill:#a37ab4;fill-opacity:1;fill-rule:nonzero;stroke:none" />
      <path
         d="m -8879.4467,3056.0861 c 6.2837,5.0332 -49.027,91.1767 -83.97,138.6575 l -44.8756,-45.6483 c 58.9818,-59.5193 119.891,-100.1821 128.8456,-93.0092 z"
         id="path4499-0-5-0-7-6-4-5"
         style="fill:#d9adeb;fill-opacity:1;fill-rule:nonzero;stroke:none" />
      <path
         d="m -8910.0641,3064.4197 c -1.033,10.2352 -0.061,18.1322 2.5493,23.8216 2.6096,5.6893 6.7428,9.2958 12.7686,11.3243 l -1.4923,4.4412 c -7.0617,-2.3771 -12.4352,-7.0504 -15.5372,-13.8134 -3.102,-6.763 -4.0457,-15.4905 -2.9597,-26.2506 l 4.6713,0.4769 z"
         id="path4501-7-5-2-7-0-1-5"
         style="font-size:medium;font-style:normal;font-variant:normal;font-weight:normal;font-stretch:normal;text-indent:0;text-align:start;text-decoration:none;line-height:normal;letter-spacing:normal;word-spacing:normal;text-transform:none;direction:ltr;block-progression:tb;writing-mode:lr-tb;text-anchor:start;baseline-shift:baseline;color:#000000;fill:#a37ab4;fill-opacity:1;stroke:none;stroke-width:4;marker:none;visibility:visible;display:inline;overflow:visible;enable-background:accumulate;font-family:Sans;-inkscape-font-specification:Sans" />
      <path
         d="m -8945.4842,3090.005 c -1.9104,15.0834 -0.3792,26.3527 3.6328,34.9535 4.0118,8.601 10.5009,14.6627 19.1531,19.2102 l -2.1557,4.1249 c -9.3204,-4.8986 -16.7921,-11.7365 -21.2771,-21.3516 -4.4852,-9.615 -5.9844,-21.8481 -3.9987,-37.5269 l 4.6456,0.5899 z"
         id="path4503-8-4-4-8-7-5-5"
         style="font-size:medium;font-style:normal;font-variant:normal;font-weight:normal;font-stretch:normal;text-indent:0;text-align:start;text-decoration:none;line-height:normal;letter-spacing:normal;word-spacing:normal;text-transform:none;direction:ltr;block-progression:tb;writing-mode:lr-tb;text-anchor:start;baseline-shift:baseline;color:#000000;fill:#a37ab4;fill-opacity:1;stroke:none;stroke-width:4;marker:none;visibility:visible;display:inline;overflow:visible;enable-background:accumulate;font-family:Sans;-inkscape-font-specification:Sans" />
      <path
         d="m -8946.3518,3200.0234 c -1.2515,-5.7125 -2.598,-11.1432 -4.0308,-16.3063 -25.6864,-92.565 -79.0846,-99.1391 -109.4955,-102.3368 l -22.8259,24.8098 50.1607,92.3101 z"
         id="path4475-0-8-3-0-2-6"
         style="fill:#273b75;fill-opacity:1;stroke:none" />
      <path
         d="m -9054.5554,3075.5972 c 17.237,8.4211 38.7715,20.0814 50.9076,41.3232 13.8696,24.2761 20.3312,55.4206 22.7346,94.7627 l 0.1042,1.6863 -1.8179,0.461 -31.657,7.1272 -2.5858,0.632 -0.3616,-2.4033 c -12.4284,-83.8903 -75.9153,-107.0481 -101.6744,-119.9703 l -4.5644,-2.2995 4.9368,-1.5517 53.5337,-21.5616 0.5372,-0.1761 0.5877,0.087 c 3.614,0.8969 6.6079,0.5892 9.3193,1.8835 z m -1.3034,4.0394 c -2.4948,-1.1669 -6.6567,-2.681 -9.4664,-3.0888 l -47.1935,21.3793 c 27.3745,12.5754 87.1806,39.1392 99.5333,118.3217 l 27.2658,-6.0653 c -2.5115,-38.1708 -8.8674,-68.2283 -22.0769,-91.3485 -11.7353,-20.5403 -32.5064,-31.9225 -48.0623,-39.1984 z"
         id="path4473-7-8-0-7-3-6"
         style="font-size:medium;font-style:normal;font-variant:normal;font-weight:normal;font-stretch:normal;text-indent:0;text-align:start;text-decoration:none;line-height:normal;letter-spacing:normal;word-spacing:normal;text-transform:none;direction:ltr;block-progression:tb;writing-mode:lr-tb;text-anchor:start;baseline-shift:baseline;color:#000000;fill:#222350;fill-opacity:1;stroke:none;stroke-width:4;marker:none;visibility:visible;display:inline;overflow:visible;enable-background:accumulate;font-family:Sans;-inkscape-font-specification:Sans" />
      <path
         d="m -8946.5484,3275.9484 c -6.137,7.6657 -10.8223,25.0843 -8.2676,24.7507 l 55.4648,-7.2421 c 15.8604,-2.071 21.883,-5.3119 25.5822,-11.8605 -12.0998,5.9331 -16.8691,5.4331 -26.0758,6.0912 l -46.2739,3.3084 c -1.0061,0.073 -0.2403,-4.931 2.5444,-11.2129 0.7091,-1.6001 -1.8949,-5.1829 -2.9741,-3.8348 z"
         id="path7185-3-6-1-3"
         style="fill:#000000;fill-opacity:1;fill-rule:nonzero;stroke:none" />
      <path
         d="m -8996.5796,3337.1804 c -40.3659,-12.2115 -87.165,5.9104 -129.824,14.2707 l 17.2676,20.0267 c 19.9167,25.2906 100.5138,22.2203 111.7693,9.5062 z"
         id="path6081-4-1-3-8-7-7-6-0"
         style="fill:#d9adeb;fill-opacity:1;fill-rule:nonzero;stroke:none" />
      <path
         d="m -8994.0829,3336.9339 c -49.5457,-20.9668 -132.5999,7.8076 -136.5175,14.3716 5.613,2.8481 57.371,-14.9883 86.0742,-15.9544 16.2926,-0.5484 38.3727,1.8334 50.794,3.2027 6.0072,1.0191 2.9306,-0.2262 -0.3507,-1.6199 z"
         id="path6077-0-8-1-9-1-3-8-0"
         style="fill:#a37ab4;fill-opacity:1;fill-rule:nonzero;stroke:none" />
      <path
         d="m -9006.7451,3347.9333 c -2.8093,-1.7239 -16.1514,-0.4771 -29.5437,3.1888 -15.6578,4.2812 -31.5772,11.3868 -33.7235,13.739 2.6937,0.8326 17.7725,-4.9722 32.9032,-9.0813 14.4112,-3.9135 28.9326,-6.0754 30.364,-7.8465 z"
         id="path6079-1-6-9-3-0-8-8-8"
         style="fill:#a37ab4;fill-opacity:1;fill-rule:nonzero;stroke:none" />
      <path
         d="m -8911.525,3352.8189 c -7.5062,-4.846 -18.1251,-6.1475 -26.4363,-5.4291 0.6583,2.092 1.2178,2.3851 2.2952,4.5598 10.2827,-0.4789 16.5964,1.2208 23.2414,4.4862 z"
         id="path6077-0-8-1-9-4-7-4-2-8"
         style="fill:#a37ab4;fill-opacity:1;fill-rule:nonzero;stroke:none" />
      <path
         d="m -7820.1843,-346.467 c -6.1892,-11.36517 -6.9612,-23.32307 -10.0495,-34.68824 -0.4654,-7.58948 -0.9615,-13.69982 -0.9921,-20.22592 l 47.6338,-7.69106 c -0.9142,13.752 -4.434,48.98204 -11.5111,67.10226 -8.2701,-2.54377 -16.3775,-5.855 -25.0811,-4.49704 z"
         transform="matrix(1.1961713,0.03532575,-0.03454983,1.1698978,406.1334,4032.5581)"
         id="path8271-3-9-7-2"
         style="fill:#ffffff;fill-opacity:1;fill-rule:nonzero;stroke:none;filter:url(#filter8435-0-8-3-5-0-8-8)" />
      <g
         transform="matrix(-1.1454196,-0.24055891,-0.24055891,1.1454196,-16015.736,533.61501)"
         id="g9513-3-2-7-3">
        <path
           d="m -6136.8067,978.58097 c -6.2104,47.56363 -14.5717,125.39273 -14.0877,190.00683 0.4043,53.9634 8.9395,98.9971 11.4888,106.7627 10.2529,31.2336 -38.8565,68.6104 -70.561,86.2893 -28.2891,-25.1149 -49.2494,-70.7302 -54.7753,-94.2993 30.3306,3.7237 71.0246,-40.1302 76.9026,-60.3392 -12.0984,18.0515 -42.1683,37.0491 -65.5526,43.7761 l -21.3881,-66.081 c 24.117,20.3434 72.3687,3.8474 99.1927,-46.3352 10.4296,-19.5117 14.5159,-47.5568 18.0954,-69.4883 5.9737,-36.5998 14.003,-71.11006 20.6852,-90.29193 z"
           id="path4191-2-5-2-7-3-8-3-5-5-6-1-0"
           style="fill:#222350;fill-opacity:1;fill-rule:nonzero;stroke:none" />
        <path
           d="m -6148.9304,1064.4093 c -1.1618,19.2278 -7.9752,94.0363 -7.7041,112.6038 0.6332,43.3707 9.3175,81.8219 13.0164,102.534 4.4982,25.188 -41.8937,62.6899 -64.4423,73.7961 -23.5987,-17.8623 -40.6296,-49.3609 -49.0895,-77.99 40.9093,-10.3063 69.2007,-42.6614 77.5713,-84.3047 -16.81,21.8708 -45.7634,43.7631 -70.4879,51.7033 l -17.9852,-48.7601 c 29.8379,18.1648 108.0415,-18.1872 112.9971,-126.8563 z"
           id="path4471-6-4-8-1-0-9-4-81-7-5-2-6"
           style="fill:#273b75;fill-opacity:1;fill-rule:nonzero;stroke:none" />
        <path
           d="m -6152.235,1129.7519 0.8011,-11.3589 c -32.9052,66.7632 -43.8316,79.5503 -106.4282,105.777 l 1.5431,4.0903 c 55.6473,-18.8289 82.9406,-50.1894 104.084,-98.5084 z"
           id="path4575-3-1-6-0-3-2-3-70-6-7-6-5"
           style="font-size:medium;font-style:normal;font-variant:normal;font-weight:normal;font-stretch:normal;text-indent:0;text-align:start;text-decoration:none;line-height:normal;letter-spacing:normal;word-spacing:normal;text-transform:none;direction:ltr;block-progression:tb;writing-mode:lr-tb;text-anchor:start;baseline-shift:baseline;color:#000000;fill:#222350;fill-opacity:1;stroke:none;stroke-width:4;marker:none;visibility:visible;display:inline;overflow:visible;enable-background:accumulate;font-family:Sans;-inkscape-font-specification:Sans" />
        <path
           d="m -6152.2349,1192.475 1.1876,-9.6598 c -45.4551,83.2808 -49.2763,82.006 -102.0181,111.054 l 2.3492,3.7162 c 58.7725,-26.6565 67.2217,-46.0994 98.4813,-105.1104 z"
           id="path4581-2-2-0-7-6-7-2-48-6-7-0-0"
           style="font-size:medium;font-style:normal;font-variant:normal;font-weight:normal;font-stretch:normal;text-indent:0;text-align:start;text-decoration:none;line-height:normal;letter-spacing:normal;word-spacing:normal;text-transform:none;direction:ltr;block-progression:tb;writing-mode:lr-tb;text-anchor:start;baseline-shift:baseline;color:#000000;fill:#222350;fill-opacity:1;stroke:none;stroke-width:4;marker:none;visibility:visible;display:inline;overflow:visible;enable-background:accumulate;font-family:Sans;-inkscape-font-specification:Sans" />
        <path
           d="m -6240.3632,1314.9177 c 3.1344,6.2212 7.0913,11.5196 12.0987,18.0665 44.8433,-24.1531 65.699,-40.1307 78.5668,-85.9002 l -2.7021,-18.0984 c -23.7927,44.0015 -38.7482,65.1837 -87.9634,85.9321 z"
           id="path4587-0-1-2-3-2-9-1-8-5-4-4-9"
           style="fill:#683a8b;fill-opacity:1;fill-rule:nonzero;stroke:none" />
        <path
           d="m -6229.4449,1331.4502 c 3.9218,5.2621 7.8561,9.6276 11.7428,13.711 34.2322,-22.4854 62.4145,-44.0604 70.6318,-84.2599 -1.0436,-6.5135 -2.0514,-9.8241 -2.7583,-15.2086 -18.0733,50.2387 -32.8619,57.7646 -79.6163,85.7575 z"
           id="path4589-8-3-4-4-0-5-1-1-82-5-9-7"
           style="fill:#f45c8f;fill-opacity:1;fill-rule:nonzero;stroke:none" />
      </g>
      <g
         transform="matrix(1.1704079,0,0,1.1704079,-188.55714,5795.0106)"
         id="g9389-7-4-2">
        <path
           d="m -7652.4346,-2248.4523 c 19.564,-28.7715 -8.859,-122.1185 -23.5981,-122.8615 -14.739,-0.7429 -84.0827,82.5744 -49.8333,177.2824 12.925,35.7406 27.5929,19.7277 41.5215,36.0336 -25.768,-52.4048 -4.332,-75.9548 31.9099,-90.4545 z"
           id="path6254-7-3-0-3-0-6-0-0-9-9-6-2"
           style="fill:#a37ab4;fill-opacity:1;fill-rule:nonzero;stroke:none" />
        <path
           d="m -7652.5345,-2250.4811 c 6.7076,-42.365 -16.548,-108.5663 -25.6989,-109.7938 -9.1509,-1.2279 -76.4907,58.1262 -41.3359,168.7934 6.2544,19.6888 18.7804,30.8861 31.5477,44.7143 3.8108,-5.9092 12.3432,-11.8376 9.8026,-18.0957 -13.1924,-32.4953 -29.0149,-65.2595 18.6649,-60.7397 8.3518,0.7917 4.3456,-16.4151 7.0196,-24.8785 z"
           id="path6256-0-0-0-2-1-78-3-9-8-8-0-8"
           style="fill:#d9adeb;fill-opacity:1;fill-rule:nonzero;stroke:none" />
        <path
           d="m -7698.1161,-2314.2994 c -6.236,18.9268 -12.3147,63.1811 -10.5568,93.4178 -8.6792,-36.8494 -6.4497,-60.1102 10.5568,-93.4178 z"
           id="path6429-6-4-3-8-2-9-3-0-8-3-3-2"
           style="fill:#a37ab4;fill-opacity:1;fill-rule:nonzero;stroke:none" />
      </g>
      <path
         d="m -8896.3643,3041.3023 c -11.2469,3.4038 -21.4917,9.5168 -32.0971,14.577 -7.6856,3.667 -16.4207,5.8445 -22.845,11.4341 -9.9613,8.6671 -12.7344,23.6975 -22.4574,32.6311 -6.4217,5.9003 -20.3989,4.5546 -22.7276,12.9587 -3.502,12.6384 12.0474,23.3555 19.2751,34.2987 10.7949,16.344 16.2326,47.0408 35.8146,46.5859 21.9131,-0.5089 24.2188,-36.5869 37.6148,-53.936 6.6368,-8.5952 13.6332,-16.9407 21.1382,-24.7892 8.3638,-8.7465 22.0186,-13.5448 26.5445,-24.7684 3.6884,-9.1467 -3.5381,-19.8791 -1.5789,-29.5449 1.426,-7.0359 12.3953,-12.8224 9.4327,-19.3616 -2.5907,-5.7182 -11.8985,-4.6328 -18.1676,-4.9628 -10.0996,-0.5318 -20.2662,1.9479 -29.9463,4.8774 z"
         id="path12473-8-2-0-6-9"
         style="fill:url(#radialGradient10962-4-1-2-3);fill-opacity:1;fill-rule:nonzero;stroke:none;display:inline" />
      <path
         d="m -8898.4508,3031.6841 c -12.9217,3.769 -28.1828,-5.0646 -40.3755,0.6377 -12.263,5.735 -16.8282,21.3079 -26.5249,30.7549 -8.3041,8.0903 -17.5155,15.2438 -26.9222,22.0209 -7.5869,5.4659 -20.4854,6.2007 -23.7222,14.9733 -7.0298,19.0529 7.5055,40.834 18.0519,58.1892 12.6878,20.8789 27.7008,51.7551 52.1314,51.5217 26.8326,-0.2562 44.9589,-33.2887 56.1659,-57.6702 2.132,-4.6384 -1.2727,-10.8855 1.3692,-15.2538 10.4845,-17.3366 41.344,-15.1642 51.0897,-32.9266 6.8105,-12.4128 -2.5024,-28.5817 0.2263,-42.4747 2.5751,-13.1109 21.3057,-25.427 14.9628,-37.1869 -7.8317,-14.5203 -32.2751,-12.6783 -48.5167,-9.7829 -10.7652,1.9193 -17.4382,14.1355 -27.9357,17.1974 z"
         id="path12473-8-2-6-2-2-4"
         style="fill:url(#radialGradient10964-0-0-5-8);fill-opacity:1;fill-rule:nonzero;stroke:none;display:inline" />
      <path
         d="m -7627.6737,-2085.1386 c -27.9375,-26.1803 -31.3776,-70.542 -20.464,-134.1116 l 145.6084,56.1355 c 8.2968,19.5587 11.349,39.4793 12.112,58.5227 -48.0577,-10.2301 -92.8043,3.5439 -137.2564,19.4534 z"
         transform="matrix(1.1698978,0.03454983,-0.03454983,1.1698978,-283.99679,6068.4729)"
         id="path8273-4-2-4-4"
         style="fill:#ffffff;fill-opacity:1;fill-rule:nonzero;stroke:none;filter:url(#filter8431-2-2-7-1-7-6-2)" />
      <path
         d="m -7467.9919,-2379.987 c -8.208,1.9583 -17.441,-1.4891 -25.259,1.6867 -12.6616,5.1433 -20.797,17.736 -31.2248,26.5694 -7.1461,6.0535 -15.1653,11.1953 -21.4784,18.1131 -7.3415,8.0447 -17.1307,16.0166 -18.6975,26.7943 -2.8467,19.5818 8.3665,39.4666 18.7036,56.3395 12.7274,20.7746 27.082,49.7601 51.3401,52.0226 26.3049,2.4533 48.1898,-24.8826 65.1437,-45.1442 4.8567,-5.8044 4.6315,-14.8042 9.4382,-20.65 10.5947,-12.885 30.4433,-16.0025 40.6371,-29.2068 10.1423,-13.1376 16.8193,-29.9077 17.8779,-46.471 1.1974,-18.7374 0.5409,-42.1054 -13.368,-54.7174 -10.9386,-9.9185 -29.2109,-8.1771 -43.8523,-6.264 -17.6902,2.3114 -31.9071,16.7876 -49.2606,20.9278 z"
         transform="matrix(1.1704079,0,0,1.1704079,-179.70767,5798.5504)"
         id="path12473-8-2-6-1-3-5-8"
         style="fill:url(#radialGradient10966-3-6-8-9);fill-opacity:1;fill-rule:nonzero;stroke:none;display:inline;filter:url(#filter9714-8-1-8-1-6-3)" />
      <path
         d="m -7435.8621,-2344.2283 c -0.2235,0 -0.4442,0.011 -0.6875,0.031 -0.447,0.038 -0.9255,0.087 -1.4375,0.1875 -0.084,0.017 -0.1647,0.044 -0.25,0.062 -0.5295,0.1125 -1.0939,0.2618 -1.6875,0.4375 -0.47,0.1391 -0.9911,0.3219 -1.5,0.5 -0.3073,0.1076 -0.6163,0.2222 -0.9375,0.3437 -0.4155,0.1579 -0.8429,0.3188 -1.2812,0.5 -0.3586,0.1478 -0.7203,0.3057 -1.0938,0.4688 -0.5807,0.2537 -1.1654,0.5221 -1.7812,0.8125 -0.3124,0.1473 -0.6476,0.3121 -0.9688,0.4687 -0.4848,0.237 -0.9643,0.4296 -1.4688,0.6876 -0.099,0.05 -0.1816,0.105 -0.2812,0.1562 -2.715,1.3991 -5.7072,3.1214 -8.9375,5.0938 -0.3447,0.2104 -0.7124,0.4395 -1.0625,0.6562 -0.1393,0.086 -0.2661,0.1627 -0.4062,0.25 -0.4482,7.3753 -0.5202,13.37 1.4611,17.689 1.6826,3.6679 5.0512,6.1405 8.3513,7.9672 0.5162,-0.8627 0.9699,-1.6881 1.4688,-2.5312 0.8816,-1.4899 1.8014,-2.9836 2.625,-4.4062 0,-0.01 0,-0.023 0,-0.031 1.1452,-1.9785 2.1985,-3.8579 3.2188,-5.6875 0.1364,-0.2448 0.3034,-0.5081 0.4374,-0.75 0.197,-0.3553 0.3708,-0.6511 0.5626,-1 0.9331,-1.6972 1.7921,-3.2766 2.5937,-4.8125 0.3197,-0.6123 0.6088,-1.1966 0.9063,-1.7813 0.1555,-0.3056 0.2882,-0.5771 0.4374,-0.875 0.8528,-1.7001 1.6129,-3.2589 2.25,-4.6874 0.5433,-1.2182 0.9718,-2.313 1.3438,-3.3126 0.066,-0.1788 0.158,-0.3598 0.2188,-0.5312 0.072,-0.2034 0.1233,-0.3696 0.1874,-0.5625 0.1246,-0.3725 0.2189,-0.6673 0.3126,-1 0.029,-0.1027 0.036,-0.1824 0.062,-0.2813 0.097,-0.3642 0.1945,-0.7201 0.25,-1.0312 0.071,-0.3955 0.092,-0.7565 0.094,-1.0625 5e-4,-0.076 0,-0.1483 0,-0.2187 0,-0.077 -0.022,-0.1485 -0.031,-0.2188 -0.012,-0.093 -0.01,-0.1687 -0.031,-0.25 -0.01,-0.036 -0.02,-0.06 -0.031,-0.094 -0.03,-0.092 -0.05,-0.176 -0.094,-0.25 -0.01,-0.013 -0.023,-0.018 -0.031,-0.031 -0.053,-0.082 -0.1156,-0.1612 -0.1874,-0.2188 -0.1607,-0.1287 -0.3629,-0.219 -0.5626,-0.3124 -0.012,-0.01 -0.019,-0.026 -0.031,-0.031 -0.2156,-0.097 -0.4601,-0.1616 -0.7188,-0.2187 -0.1793,-0.04 -0.3628,-0.073 -0.5624,-0.094 -0.022,0 -0.041,0 -0.063,0 -0.2034,-0.017 -0.4327,-0.033 -0.6562,-0.031 z m -27.875,13.2812 c -1.949,1.2722 -3.9822,2.628 -6.0625,4.0625 -2.0572,1.4186 -4.1722,2.8978 -6.3437,4.4687 -0.024,0.018 -0.038,0.045 -0.063,0.063 -2.0901,1.5154 -4.2537,3.0993 -6.4374,4.75 -0.1383,0.1043 -0.2677,0.2075 -0.4063,0.3124 -1.7474,1.3226 -3.5448,2.7198 -5.3437,4.125 -0.3803,0.2972 -0.7739,0.6055 -1.1563,0.9063 -0.1491,0.1173 -0.2881,0.2259 -0.4375,0.3437 -1.1381,11.5633 -1.1044,21.1417 2.083,27.9749 2.8745,6.1624 8.568,10.0538 14.2608,13.6814 1.1397,-1.7246 2.2486,-3.4341 3.375,-5.1563 0.8314,-1.2724 1.6792,-2.5457 2.5,-3.8124 1.875,-2.8899 3.6947,-5.757 5.5,-8.5938 0.1893,-0.2982 0.374,-0.5776 0.5624,-0.875 1.6376,-2.5787 3.2241,-5.1232 4.7813,-7.625 0.3389,-0.5455 0.6654,-1.0527 1,-1.5938 1.4016,-2.2622 2.7151,-4.4227 4.0313,-6.5937 -3.943,-2.2504 -5.5064,-5.9331 -7.4878,-10.2531 -2.0593,-4.4896 -4.4717,-9.6409 -4.356,-16.1844 z m -31.025,91.3106 c 0.249,-0.3543 1.3686,-1.6414 1.6188,-1.9981 0.9503,-1.3554 1.9433,-2.7699 2.9062,-4.1563 0.3188,-0.4591 0.6488,-0.9441 0.9688,-1.4062 1.5281,-2.2075 3.0787,-4.4536 4.625,-6.7188 0.5274,-0.7726 1.0651,-1.5346 1.5937,-2.3124 0.862,-1.2689 1.7307,-2.5637 2.5937,-3.8438 1.5392,-2.2826 3.0927,-4.6028 4.625,-6.9062 -6.1998,-3.9691 -10.4474,-9.3546 -13.6501,-16.2203 -3.1837,-6.8253 -5.37,-14.9924 -4.7873,-25.311 -0.9205,0.742 -1.8192,1.489 -2.75,2.25 -1.4665,1.1989 -2.9476,2.4115 -4.4376,3.6563 -1.4899,1.2447 -2.9893,2.5234 -4.5,3.8124 -1.2464,1.0638 -2.4912,2.1259 -3.75,3.2188 -0.2745,0.2384 -0.5373,0.479 -0.8124,0.7188 -1.4885,1.2972 -2.9973,2.6011 -4.5,3.9374 -1.9434,1.722 -2.3064,1.8226 -4.0072,3.3423 7.8516,8.4563 18.8075,29.0018 24.2634,47.9371 z"
         transform="matrix(1.1704079,0,0,1.1704079,-179.70767,5798.5504)"
         id="path4499-0-5-0-7-6-7-6-8-2"
         style="fill:#fdfdff;fill-opacity:0.9414896;fill-rule:nonzero;stroke:none;filter:url(#filter9979-3-3-0-3-9-4)" />
    </g>
    <path
       d="m 8319.5625,-8748.3125 c -17.205,-0.8672 -97.997,96.1112 -58.6563,206.5937 -4.9622,41.4481 -11.5596,85.9584 -20.1874,125.5626 -6.7099,30.7997 -15.2346,58.5702 -22.6563,79.6874 -8.523,-0.7861 -17.3912,-1.4373 -23.125,-1.4687 -18.017,-0.099 -35.1993,0.6861 -50.9375,5.6563 -30.6841,-42.956 -69.2845,-90.5999 -149.0625,-71.9688 -219.9594,51.3689 -282.0926,408.5376 -291.0625,493.875 l 45.5312,21.6875 c 1.9045,-28.366 2.2346,-39.2532 7.75,-76.7187 0.6512,33.2049 4.1131,47.6967 5.6563,81.5937 46.7665,20.0039 91.4976,33.7062 133.5313,42.1875 -1.0642,5.4187 -2.073,10.8001 -3.0313,16.125 -10.8876,60.4964 165.6163,38.3553 163.125,20.4375 -23.76,-170.8781 45.7493,-220.9459 100.75,-311.3437 9.8417,10.5087 20.4789,20.0063 32.9063,27.0312 -12.0402,40.1482 -12.4321,82.4091 -6.375,121.1875 -14.7826,53.8109 -23.8261,111.1776 -32,166.25 -5.8969,39.7293 168.0279,30.787 168.2812,4.0937 0.074,-7.847 -0.9339,-15.3387 -2.4688,-23.3124 38.7323,-0.964 75.5139,-7.4469 62.9376,-21.9376 -33.8945,-39.0534 -55.6386,-79.032 -71.7813,-119.2812 3.7019,-33.6231 11.2335,-75.3381 24.6875,-128.0938 8.6922,-2.2031 17.2378,-4.8315 25.4688,-8.1874 3.069,97.3436 28.588,191.139 63.125,273.2812 9.337,22.207 168.6621,45.2279 147.2187,-2.5625 -67.078,-105.9936 -111.3287,-220.5601 -135.5,-367.1875 1.628,-7.5847 2.6609,-15.0706 3.0625,-22.1875 1.6446,-29.146 6.1128,-54.4506 -3.6875,-88.0625 26.5943,4.2899 56.2401,3.2068 87.4063,-7.9062 -0.9394,-0.5404 -2.9126,-1.4308 -5.3438,-2.75 15.2692,-7.374 27.7754,-15.3015 37.625,-23.6876 0.2449,0.029 0.5075,0.068 0.75,0.094 20.9084,2.2427 41.2899,-15.3902 50.5,-36.8125 1.6602,-3.8617 1.9017,-7.3031 1.1562,-10.3437 -23.5725,6.3401 -54.6106,-1.9115 -79.5937,2.5312 -39.8539,7.0873 -78.2362,27.1583 -118.6875,25.6562 -32.6917,-1.2137 -69.8232,-5.9154 -94.1562,-27.7812 -25.5534,-22.9622 -36.9792,-60.928 -39.5313,-95.1875 -1.5288,-20.5232 5.5804,-41.5612 14.9687,-59.875 11.074,-21.601 24.5402,-46.5401 47.0626,-55.5937 27.9925,-11.253 65.3278,26.7252 90.0312,9.4062 33.2838,-23.3344 13.0334,-81.0655 24.4688,-120.625 -28.4435,11.7205 -61.5703,26.701 -97.0938,40.9688 -6.0305,-39.5024 -22.5198,-80.4998 -33.0625,-81.0313 z m 149.5,32.375 c -3.0911,1.1793 -6.2339,2.3966 -9.4687,3.6875 3.2233,-1.2861 6.3872,-2.5118 9.4687,-3.6875 z m 220.75,51.25 c 1.153,1.8339 2.3038,3.6767 3.4375,5.5625 -1.132,-1.8808 -2.2865,-3.7331 -3.4375,-5.5625 z m 14.4687,25.4063 c 1.0084,1.948 2.0197,3.897 3,5.875 -0.9815,-1.9782 -1.9902,-3.9271 -3,-5.875 z m 3,5.875 c 1.0883,2.1958 2.168,4.4286 3.2188,6.6562 -1.0537,-2.2324 -2.1271,-4.4561 -3.2188,-6.6562 z m 3.2188,6.6562 c 1.0369,2.198 2.0651,4.4014 3.0625,6.625 -0.9959,-2.2204 -2.0268,-4.4308 -3.0625,-6.625 z m 3.0938,6.7188 c -2.4009,6.788 -5.212,13.4057 -8.4376,19.7812 -9.0315,17.8518 -29.5725,26.8816 -46.7187,38.5 26.6032,0.6199 52.289,2.3195 76.3437,4.625 -4.458,-20.6432 -11.9383,-42.2716 -21.1874,-62.9062 z m -105.8126,58.5312 c -1.8329,0.064 -3.6626,0.1413 -5.5,0.2188 1.8381,-0.078 3.6663,-0.1536 5.5,-0.2188 z m -9.625,164.9062 c 0.4698,0.3564 0.9052,0.7425 1.3438,1.125 -0.4385,-0.3819 -0.8741,-0.7691 -1.3438,-1.125 z m 1.375,1.125 c 0.4495,0.3928 0.87,0.8296 1.2813,1.25 -0.4144,-0.4235 -0.8281,-0.8544 -1.2813,-1.25 z m 1.2813,1.25 c 0.8331,0.8515 1.5748,1.7539 2.2187,2.7188 -0.6426,-0.9626 -1.3876,-1.8692 -2.2187,-2.7188 z m 2.2187,2.7188 c 0.2541,0.3806 0.499,0.758 0.7188,1.1562 -0.2191,-0.3965 -0.4657,-0.7772 -0.7188,-1.1562 z m 1.5938,3.0625 c 0.1028,0.2696 0.1947,0.5358 0.2812,0.8125 -0.085,-0.2725 -0.1801,-0.5469 -0.2812,-0.8125 z m -522.0938,115.4063 c -7.8203,13.7778 -14.3644,28.2423 -18.4687,40.9062 -18.3071,48.5278 -13.739,88.0556 -18.7187,134.125 -6.3556,-1.1034 -15.3551,-1.4 -19.9063,3.3125 -38.2269,39.5824 -64.8886,78.551 -84.0937,116.375 -9.6443,-137.4874 36.9003,-292.5096 141.1874,-294.7187 z"
       transform="translate(-7976.471,8628.2816)"
       mask="url(#mask15257)"
       id="path15246"
       style="fill:#000000;fill-opacity:0.50588229;fill-rule:nonzero;stroke:none;display:inline;filter:url(#filter15253)" />
    <rect
       width="1221.3029"
       height="1246.2313"
       x="-336.271"
       y="-269.82367"
       id="rect15261"
       style="fill:none;stroke:none;display:inline" />
  </g>
</svg>
